<svg xmlns="http://www.w3.org/2000/svg" width="51" height="42" viewBox="0 0 51 42"><g><g><path d="M50.907 36.316L47.72 41.53a.725.725 0 0 1-.619.336H3.908a.649.649 0 0 1-.094-.006l-.03-.006c-.021-.004-.042-.007-.061-.012l-.015-.004a.708.708 0 0 1-.417-.308L.096 36.316a.641.641 0 0 1 0-.675L21.69.337a.453.453 0 0 1 .045-.064c.003-.003.004-.007.008-.01a.87.87 0 0 1 .05-.056l.01-.01c.013-.014.03-.025.043-.037.01-.006.018-.015.028-.021.012-.01.025-.017.038-.024L21.95.09c.013-.01.03-.016.044-.022l.044-.02A.769.769 0 0 1 22.307 0h6.383c.255 0 .49.128.618.337l21.597 35.305a.65.65 0 0 1 .002.675zM23.544 1.348l17.798 29.086a.639.639 0 0 1 0 .673.723.723 0 0 1-.619.337H17.07l-2.36 3.86h34.343L28.279 1.349zm1.953 16.309l-7.604 12.438H33.1zm-23.96 18.32l2.37 3.867L21.69 10.751a.696.696 0 0 1 .184-.198.732.732 0 0 1 .482-.136l.045.003.056.01a.266.266 0 0 1 .037.007l.032.01a.723.723 0 0 1 .4.304l.185.303 3.005 4.917.008.013 8.624 14.111h4.74L22.306 2.021zm47.516.674H13.475a.723.723 0 0 1-.618-.336.639.639 0 0 1 0-.673l11.817-19.333-2.367-3.872L7.53 36.612l-2.386 3.905h41.545z"/></g></g></svg>