<?xml version="1.0" encoding="iso-8859-1"?>
<!-- Generator: Adobe Illustrator 19.0.0, SVG Export Plug-In . SVG Version: 6.00 Build 0)  -->
<svg version="1.1" id="Capa_1" xmlns="http://www.w3.org/2000/svg" xmlns:xlink="http://www.w3.org/1999/xlink" x="0px" y="0px"
	 viewBox="0 0 512 512" style="enable-background:new 0 0 512 512;" xml:space="preserve">
<g>
	<g>
		<path d="M353.92,149.525c-5.739-1.109-11.349,2.752-12.416,8.576L320,277.333c0,58.944,48.213,85.333,96,85.333
			c45.312,0,96-45.611,96-106.667C512,114.837,397.163,0,256,0S0,114.837,0,256s114.837,256,256,256
			c58.475,0,113.536-19.2,159.211-55.531c4.608-3.669,5.376-10.368,1.707-14.976c-3.669-4.629-10.368-5.355-14.997-1.707
			c-41.856,33.28-92.309,50.88-145.92,50.88c-129.387,0-234.667-105.28-234.667-234.667S126.613,21.333,256,21.333
			S490.667,126.613,490.667,256c0,48.064-40.149,85.333-74.667,85.333c-34.432,0-74.667-16.768-74.837-62.08l21.333-117.333
			C363.541,156.139,359.701,150.571,353.92,149.525z"/>
	</g>
</g>
<g>
	<g>
		<path d="M348.757,173.696c-22.187-21.653-60.437-29.653-97.493-20.309c-43.328,10.901-76.416,43.243-90.773,88.725
			c-8.917,28.245-3.584,59.648,14.272,84.011c17.003,23.211,42.731,36.544,70.571,36.544c50.133,0,86.08-41.707,95.744-82.901
			c1.344-5.739-2.219-11.477-7.957-12.821c-5.931-1.301-11.499,2.24-12.843,7.957c-6.229,26.709-31.36,66.432-74.944,66.432
			c-20.949,0-40.427-10.133-53.397-27.819c-13.824-18.901-17.984-43.2-11.115-64.981c16.533-52.395,54.485-69.141,75.627-74.453
			c29.568-7.445,60.672-1.451,77.44,14.891c4.181,4.096,10.944,4.053,15.083-0.192C353.067,184.555,352.981,177.792,348.757,173.696
			z"/>
	</g>
</g>
<g>
</g>
<g>
</g>
<g>
</g>
<g>
</g>
<g>
</g>
<g>
</g>
<g>
</g>
<g>
</g>
<g>
</g>
<g>
</g>
<g>
</g>
<g>
</g>
<g>
</g>
<g>
</g>
<g>
</g>
</svg>
