<?xml version="1.0" encoding="iso-8859-1"?>
<!-- Generator: Adobe Illustrator 19.0.0, SVG Export Plug-In . SVG Version: 6.00 Build 0)  -->
<svg version="1.1" id="Capa_1" xmlns="http://www.w3.org/2000/svg" xmlns:xlink="http://www.w3.org/1999/xlink" x="0px" y="0px"
	 viewBox="0 0 512 512" style="enable-background:new 0 0 512 512;" xml:space="preserve">
<g>
	<g>
		<path d="M256,0C156.011,0,74.667,81.344,74.667,181.333c0,96.704,165.781,317.099,172.821,326.443
			c2.027,2.667,5.163,4.224,8.512,4.224c3.349,0,6.485-1.557,8.512-4.224c7.04-9.344,172.821-229.739,172.821-326.443
			C437.333,81.344,355.989,0,256,0z M256,483.392C221.76,436.544,96,259.157,96,181.333c0-88.235,71.765-160,160-160
			s160,71.765,160,160C416,259.115,290.24,436.523,256,483.392z"/>
	</g>
</g>
<g>
	<g>
		<path d="M256,85.333c-52.928,0-96,43.072-96,96c0,52.928,43.072,96,96,96c52.928,0,96-43.072,96-96
			C352,128.405,308.928,85.333,256,85.333z M256,256c-41.173,0-74.667-33.493-74.667-74.667c0-41.173,33.493-74.667,74.667-74.667
			s74.667,33.493,74.667,74.667S297.173,256,256,256z"/>
	</g>
</g>
</svg>
