<?xml version="1.0" encoding="iso-8859-1"?>
<!-- Generator: Adobe Illustrator 19.0.0, SVG Export Plug-In . SVG Version: 6.00 Build 0)  -->
<svg version="1.1" id="Capa_1" xmlns="http://www.w3.org/2000/svg" xmlns:xlink="http://www.w3.org/1999/xlink" x="0px" y="0px"
	 viewBox="0 0 512 512" style="enable-background:new 0 0 512 512;" xml:space="preserve">
<g>
	<g>
		<path d="M405.333,85.333H106.667C100.779,85.333,96,90.112,96,96s4.779,10.667,10.667,10.667h298.667
			c5.888,0,10.667-4.779,10.667-10.667S411.221,85.333,405.333,85.333z"/>
	</g>
</g>
<g>
	<g>
		<path d="M256,426.667c-11.755,0-21.333,9.579-21.333,21.333c0,11.755,9.579,21.333,21.333,21.333
			c11.755,0,21.333-9.579,21.333-21.333C277.333,436.245,267.755,426.667,256,426.667z"/>
	</g>
</g>
<g>
	<g>
		<path d="M277.333,42.667h-42.667c-5.888,0-10.667,4.779-10.667,10.667S228.779,64,234.667,64h42.667
			C283.221,64,288,59.221,288,53.333S283.221,42.667,277.333,42.667z"/>
	</g>
</g>
<g>
	<g>
		<path d="M362.667,0H149.333C119.936,0,96,23.936,96,53.333v405.333C96,488.064,119.936,512,149.333,512h213.333
			C392.064,512,416,488.064,416,458.667V53.333C416,23.936,392.064,0,362.667,0z M394.667,458.667c0,17.643-14.357,32-32,32H149.333
			c-17.643,0-32-14.357-32-32V53.333c0-17.643,14.357-32,32-32h213.333c17.643,0,32,14.357,32,32V458.667z"/>
	</g>
</g>
<g>
	<g>
		<path d="M405.333,384H106.667C100.779,384,96,388.779,96,394.667s4.779,10.667,10.667,10.667h298.667
			c5.888,0,10.667-4.779,10.667-10.667S411.221,384,405.333,384z"/>
	</g>
</g>
<g>
</g>
<g>
</g>
<g>
</g>
<g>
</g>
<g>
</g>
<g>
</g>
<g>
</g>
<g>
</g>
<g>
</g>
<g>
</g>
<g>
</g>
<g>
</g>
<g>
</g>
<g>
</g>
<g>
</g>
</svg>
