<?xml version="1.0" encoding="iso-8859-1"?>
<!-- Generator: Adobe Illustrator 19.0.0, SVG Export Plug-In . SVG Version: 6.00 Build 0)  -->
<svg version="1.1" id="Capa_1" xmlns="http://www.w3.org/2000/svg" xmlns:xlink="http://www.w3.org/1999/xlink" x="0px" y="0px"
	 viewBox="0 0 490.667 490.667" style="enable-background:new 0 0 490.667 490.667;" xml:space="preserve">
<g>
	<g>
		<path d="M245.333,0C110.059,0,0,110.059,0,245.333s110.059,245.333,245.333,245.333s245.333-110.059,245.333-245.333
			S380.608,0,245.333,0z M245.333,469.333c-123.52,0-224-100.48-224-224s100.48-224,224-224s224,100.48,224,224
			S368.853,469.333,245.333,469.333z"/>
	</g>
</g>
<g>
	<g>
		<path d="M245.333,0c-77.76,0-138.667,107.776-138.667,245.333s60.907,245.333,138.667,245.333S384,382.891,384,245.333
			S323.093,0,245.333,0z M245.333,469.333c-63.595,0-117.333-102.592-117.333-224s53.739-224,117.333-224
			s117.333,102.592,117.333,224S308.928,469.333,245.333,469.333z"/>
	</g>
</g>
<g>
	<g>
		<path d="M480,234.667H10.667C4.779,234.667,0,239.445,0,245.333S4.779,256,10.667,256H480c5.888,0,10.667-4.779,10.667-10.667
			S485.888,234.667,480,234.667z"/>
	</g>
</g>
<g>
	<g>
		<path d="M442.027,106.667H48.619c-5.888,0-10.667,4.779-10.667,10.667S42.731,128,48.619,128h393.429
			c5.888,0,10.645-4.779,10.645-10.667S447.915,106.667,442.027,106.667z"/>
	</g>
</g>
<g>
	<g>
		<path d="M442.027,362.667H48.619c-5.888,0-10.667,4.779-10.667,10.667S42.731,384,48.619,384h393.429
			c5.888,0,10.645-4.779,10.645-10.667S447.915,362.667,442.027,362.667z"/>
	</g>
</g>
<g>
	<g>
		<path d="M245.333,0c-5.888,0-10.667,4.779-10.667,10.667V480c0,5.888,4.779,10.667,10.667,10.667S256,485.888,256,480V10.667
			C256,4.779,251.221,0,245.333,0z"/>
	</g>
</g>
<g>
</g>
<g>
</g>
<g>
</g>
<g>
</g>
<g>
</g>
<g>
</g>
<g>
</g>
<g>
</g>
<g>
</g>
<g>
</g>
<g>
</g>
<g>
</g>
<g>
</g>
<g>
</g>
<g>
</g>
</svg>
